<svg id="SvgjsSvg1006" width="1593.5482177734375" height="812.542594909668" xmlns="http://www.w3.org/2000/svg" version="1.1" xmlns:xlink="http://www.w3.org/1999/xlink" xmlns:svgjs="http://svgjs.com/svgjs"><defs id="SvgjsDefs1007"><marker id="SvgjsMarker1018" markerWidth="14" markerHeight="10" refX="10" refY="5" viewBox="0 0 14 10" orient="auto" markerUnits="userSpaceOnUse" stroke-dasharray="0,0"><path id="SvgjsPath1019" d="M0,0 L14,5 L0,10 L0,0" fill="#323232" stroke="#323232" stroke-width="1"></path></marker><marker id="SvgjsMarker1028" markerWidth="14" markerHeight="10" refX="10" refY="5" viewBox="0 0 14 10" orient="auto" markerUnits="userSpaceOnUse" stroke-dasharray="0,0"><path id="SvgjsPath1029" d="M0,0 L14,5 L0,10 L0,0" fill="#323232" stroke="#323232" stroke-width="1"></path></marker><marker id="SvgjsMarker1038" markerWidth="14" markerHeight="10" refX="10" refY="5" viewBox="0 0 14 10" orient="auto" markerUnits="userSpaceOnUse" stroke-dasharray="0,0"><path id="SvgjsPath1039" d="M0,0 L14,5 L0,10 L0,0" fill="#323232" stroke="#323232" stroke-width="1"></path></marker><marker id="SvgjsMarker1048" markerWidth="14" markerHeight="10" refX="10" refY="5" viewBox="0 0 14 10" orient="auto" markerUnits="userSpaceOnUse" stroke-dasharray="0,0"><path id="SvgjsPath1049" d="M0,0 L14,5 L0,10 L0,0" fill="#323232" stroke="#323232" stroke-width="1"></path></marker><marker id="SvgjsMarker1058" markerWidth="14" markerHeight="10" refX="10" refY="5" viewBox="0 0 14 10" orient="auto" markerUnits="userSpaceOnUse" stroke-dasharray="0,0"><path id="SvgjsPath1059" d="M0,0 L14,5 L0,10 L0,0" fill="#323232" stroke="#323232" stroke-width="1"></path></marker><marker id="SvgjsMarker1068" markerWidth="14" markerHeight="10" refX="10" refY="5" viewBox="0 0 14 10" orient="auto" markerUnits="userSpaceOnUse" stroke-dasharray="0,0"><path id="SvgjsPath1069" d="M0,0 L14,5 L0,10 L0,0" fill="#323232" stroke="#323232" stroke-width="1"></path></marker><marker id="SvgjsMarker1080" markerWidth="14" markerHeight="10" refX="10" refY="5" viewBox="0 0 14 10" orient="auto" markerUnits="userSpaceOnUse" stroke-dasharray="0,0"><path id="SvgjsPath1081" d="M0,0 L14,5 L0,10 L0,0" fill="#323232" stroke="#323232" stroke-width="1"></path></marker><marker id="SvgjsMarker1090" markerWidth="14" markerHeight="10" refX="10" refY="5" viewBox="0 0 14 10" orient="auto" markerUnits="userSpaceOnUse" stroke-dasharray="0,0"><path id="SvgjsPath1091" d="M0,0 L14,5 L0,10 L0,0" fill="#323232" stroke="#323232" stroke-width="1"></path></marker><marker id="SvgjsMarker1100" markerWidth="14" markerHeight="10" refX="10" refY="5" viewBox="0 0 14 10" orient="auto" markerUnits="userSpaceOnUse" stroke-dasharray="0,0"><path id="SvgjsPath1101" d="M0,0 L14,5 L0,10 L0,0" fill="#323232" stroke="#323232" stroke-width="1"></path></marker><marker id="SvgjsMarker1220" markerWidth="14" markerHeight="10" refX="10" refY="5" viewBox="0 0 14 10" orient="auto" markerUnits="userSpaceOnUse" stroke-dasharray="0,0"><path id="SvgjsPath1221" d="M0,0 L14,5 L0,10 L0,0" fill="#323232" stroke="#323232" stroke-width="1"></path></marker><marker id="SvgjsMarker1224" markerWidth="14" markerHeight="10" refX="10" refY="5" viewBox="0 0 14 10" orient="auto" markerUnits="userSpaceOnUse" stroke-dasharray="0,0"><path id="SvgjsPath1225" d="M0,0 L14,5 L0,10 L0,0" fill="#323232" stroke="#323232" stroke-width="1"></path></marker><marker id="SvgjsMarker1258" markerWidth="14" markerHeight="10" refX="10" refY="5" viewBox="0 0 14 10" orient="auto" markerUnits="userSpaceOnUse" stroke-dasharray="0,0"><path id="SvgjsPath1259" d="M0,0 L14,5 L0,10 L0,0" fill="#323232" stroke="#323232" stroke-width="1"></path></marker><marker id="SvgjsMarker1262" markerWidth="14" markerHeight="10" refX="10" refY="5" viewBox="0 0 14 10" orient="auto" markerUnits="userSpaceOnUse" stroke-dasharray="0,0"><path id="SvgjsPath1263" d="M0,0 L14,5 L0,10 L0,0" fill="#323232" stroke="#323232" stroke-width="1"></path></marker><marker id="SvgjsMarker1266" markerWidth="14" markerHeight="10" refX="10" refY="5" viewBox="0 0 14 10" orient="auto" markerUnits="userSpaceOnUse" stroke-dasharray="0,0"><path id="SvgjsPath1267" d="M0,0 L14,5 L0,10 L0,0" fill="#323232" stroke="#323232" stroke-width="1"></path></marker><marker id="SvgjsMarker1270" markerWidth="14" markerHeight="10" refX="10" refY="5" viewBox="0 0 14 10" orient="auto" markerUnits="userSpaceOnUse" stroke-dasharray="0,0"><path id="SvgjsPath1271" d="M0,0 L14,5 L0,10 L0,0" fill="#323232" stroke="#323232" stroke-width="1"></path></marker><marker id="SvgjsMarker1286" markerWidth="14" markerHeight="10" refX="10" refY="5" viewBox="0 0 14 10" orient="auto" markerUnits="userSpaceOnUse" stroke-dasharray="0,0"><path id="SvgjsPath1287" d="M0,0 L14,5 L0,10 L0,0" fill="#323232" stroke="#323232" stroke-width="1"></path></marker><marker id="SvgjsMarker1290" markerWidth="14" markerHeight="10" refX="10" refY="5" viewBox="0 0 14 10" orient="auto" markerUnits="userSpaceOnUse" stroke-dasharray="0,0"><path id="SvgjsPath1291" d="M0,0 L14,5 L0,10 L0,0" fill="#323232" stroke="#323232" stroke-width="1"></path></marker><marker id="SvgjsMarker1294" markerWidth="14" markerHeight="10" refX="10" refY="5" viewBox="0 0 14 10" orient="auto" markerUnits="userSpaceOnUse" stroke-dasharray="0,0"><path id="SvgjsPath1295" d="M0,0 L14,5 L0,10 L0,0" fill="#323232" stroke="#323232" stroke-width="1"></path></marker><marker id="SvgjsMarker1298" markerWidth="14" markerHeight="10" refX="10" refY="5" viewBox="0 0 14 10" orient="auto" markerUnits="userSpaceOnUse" stroke-dasharray="0,0"><path id="SvgjsPath1299" d="M0,0 L14,5 L0,10 L0,0" fill="#323232" stroke="#323232" stroke-width="1"></path></marker><marker id="SvgjsMarker1308" markerWidth="14" markerHeight="10" refX="10" refY="5" viewBox="0 0 14 10" orient="auto" markerUnits="userSpaceOnUse" stroke-dasharray="0,0"><path id="SvgjsPath1309" d="M0,0 L14,5 L0,10 L0,0" fill="#323232" stroke="#323232" stroke-width="1"></path></marker><marker id="SvgjsMarker1318" markerWidth="14" markerHeight="10" refX="10" refY="5" viewBox="0 0 14 10" orient="auto" markerUnits="userSpaceOnUse" stroke-dasharray="0,0"><path id="SvgjsPath1319" d="M0,0 L14,5 L0,10 L0,0" fill="#323232" stroke="#323232" stroke-width="1"></path></marker></defs><g id="SvgjsG1008" transform="translate(798.0028533935547,82.00853729248047)"><path id="SvgjsPath1009" d="M 0 0L 190 0L 190 72L 0 72Z" stroke="rgba(50,50,50,1)" stroke-width="2" fill-opacity="1" fill="#ffffff"></path><g id="SvgjsG1010"><text id="SvgjsText1011" font-family="微软雅黑" text-anchor="start" font-size="13px" width="170px" fill="#323232" font-weight="400" align="middle" lineHeight="125%" anchor="start" family="微软雅黑" size="13px" weight="400" font-style="" opacity="1" y="16.875" transform="rotate(0)"><tspan id="SvgjsTspan1012" dy="16" x="10"><tspan id="SvgjsTspan1013" style="text-decoration:;font-size: inherit;">计算机导论</tspan></tspan><tspan id="SvgjsTspan1014" dy="16" x="10"><tspan id="SvgjsTspan1015" style="text-decoration:;font-size: inherit;">计算机组成原理</tspan></tspan></text></g></g><g id="SvgjsG1016"><path id="SvgjsPath1017" d="M893.0028533935547 155.00853729248047L893.0028533935547 190.50853729248047L893.0028533935547 190.50853729248047L893.0028533935547 227.00853729248047" stroke="#323232" stroke-width="2" fill="none" marker-end="url(#SvgjsMarker1018)"></path></g><g id="SvgjsG1020" transform="translate(863.0028533935547,235.00853729248047)"><path id="SvgjsPath1021" d="M 0 0L 100 0L 100 70L 0 70Z" stroke="rgba(50,50,50,1)" stroke-width="2" fill-opacity="1" fill="#ffffff"></path><g id="SvgjsG1022"><text id="SvgjsText1023" font-family="微软雅黑" text-anchor="start" font-size="13px" width="80px" fill="#323232" font-weight="400" align="middle" lineHeight="125%" anchor="start" family="微软雅黑" size="13px" weight="400" font-style="" opacity="1" y="24.375" transform="rotate(0)"><tspan id="SvgjsTspan1024" dy="16" x="10"><tspan id="SvgjsTspan1025" style="text-decoration:;">操作系统</tspan></tspan></text></g></g><g id="SvgjsG1026"><path id="SvgjsPath1027" d="M862.0028533935547 270.00853729248047L678.0028533935547 270.00853729248047L678.0028533935547 270.00853729248047L496.6028533935547 270.00853729248047" stroke="#323232" stroke-width="2" fill="none" marker-end="url(#SvgjsMarker1028)"></path></g><g id="SvgjsG1030" transform="translate(393.0028533935547,235.00853729248047)"><path id="SvgjsPath1031" d="M 0 0L 100 0L 100 70L 0 70Z" stroke="rgba(50,50,50,1)" stroke-width="2" fill-opacity="1" fill="#ffffff"></path><g id="SvgjsG1032"><text id="SvgjsText1033" font-family="微软雅黑" text-anchor="start" font-size="13px" width="80px" fill="#323232" font-weight="400" align="middle" lineHeight="125%" anchor="start" family="微软雅黑" size="13px" weight="400" font-style="" opacity="1" y="24.375" transform="rotate(0)"><tspan id="SvgjsTspan1034" dy="16" x="10"><tspan id="SvgjsTspan1035" style="text-decoration:;">数据库</tspan></tspan></text></g></g><g id="SvgjsG1036"><path id="SvgjsPath1037" d="M443.0028533935547 306.00853729248047L443.0028533935547 388.00853729248047L353.0028533935547 388.00853729248047L353.0028533935547 467.40853729248045" stroke="#323232" stroke-width="2" fill="none" marker-end="url(#SvgjsMarker1038)"></path></g><g id="SvgjsG1040" transform="translate(303.0028533935547,471.00853729248047)"><path id="SvgjsPath1041" d="M 0 0L 100 0L 100 70L 0 70Z" stroke="rgba(50,50,50,1)" stroke-width="2" fill-opacity="1" fill="#ffffff"></path><g id="SvgjsG1042"><text id="SvgjsText1043" font-family="微软雅黑" text-anchor="start" font-size="13px" width="80px" fill="#323232" font-weight="400" align="middle" lineHeight="125%" anchor="start" family="微软雅黑" size="13px" weight="400" font-style="" opacity="1" y="24.375" transform="rotate(0)"><tspan id="SvgjsTspan1044" dy="16" x="10"><tspan id="SvgjsTspan1045" style="text-decoration:;">MySQL</tspan></tspan></text></g></g><g id="SvgjsG1046"><path id="SvgjsPath1047" d="M443.0028533935547 306.00853729248047L443.0028533935547 389.87217712402344L533.0028533935547 389.87217712402344L533.0028533935547 471.1358169555664" stroke="#323232" stroke-width="2" fill="none" marker-end="url(#SvgjsMarker1048)"></path></g><g id="SvgjsG1050" transform="translate(483.0028533935547,474.7358169555664)"><path id="SvgjsPath1051" d="M 0 0L 100 0L 100 70L 0 70Z" stroke="rgba(50,50,50,1)" stroke-width="2" fill-opacity="1" fill="#ffffff"></path><g id="SvgjsG1052"><text id="SvgjsText1053" font-family="微软雅黑" text-anchor="start" font-size="13px" width="80px" fill="#323232" font-weight="400" align="middle" lineHeight="125%" anchor="start" family="微软雅黑" size="13px" weight="400" font-style="" opacity="1" y="24.375" transform="rotate(0)"><tspan id="SvgjsTspan1054" dy="16" x="10"><tspan id="SvgjsTspan1055" style="text-decoration:;">monqodb</tspan></tspan></text></g></g><g id="SvgjsG1056"><path id="SvgjsPath1057" d="M913.0028533935547 306.00853729248047L913.0028533935547 375.841336114066L689.5028533935547 375.841336114066L689.5028533935547 443.0741349356515" stroke="#323232" stroke-width="2" fill="none" marker-end="url(#SvgjsMarker1058)"></path></g><g id="SvgjsG1060" transform="translate(631.0028533935547,444.32673263549805)"><path id="SvgjsPath1061" d="M 0 0L 117 0L 117 54.77272033691406L 0 54.77272033691406Z" stroke="rgba(50,50,50,1)" stroke-width="2" fill-opacity="1" fill="#ffffff"></path><g id="SvgjsG1062"><text id="SvgjsText1063" font-family="微软雅黑" text-anchor="start" font-size="13px" width="97px" fill="#323232" font-weight="400" align="middle" lineHeight="125%" anchor="start" family="微软雅黑" size="13px" weight="400" font-style="" opacity="1" y="16.76136016845703" transform="rotate(0)"><tspan id="SvgjsTspan1064" dy="16" x="10"><tspan id="SvgjsTspan1065" style="text-decoration:;">Linux</tspan></tspan></text></g></g><g id="SvgjsG1066"><path id="SvgjsPath1067" d="M913.0028533935547 306.00853729248047L913.0028533935547 374.66763496398926L1175.0028533935547 374.66763496398926L1175.0028533935547 440.726732635498" stroke="#323232" stroke-width="2" fill="none" marker-end="url(#SvgjsMarker1068)"></path></g><g id="SvgjsG1070" transform="translate(1087.0028533935547,444.32673263549805)"><path id="SvgjsPath1071" d="M 0 0L 176 0L 176 79L 0 79Z" stroke="rgba(50,50,50,1)" stroke-width="2" fill-opacity="1" fill="#ffffff"></path><g id="SvgjsG1072"><text id="SvgjsText1073" font-family="微软雅黑" text-anchor="start" font-size="13px" width="156px" fill="#323232" font-weight="400" align="middle" lineHeight="125%" anchor="start" family="微软雅黑" size="13px" weight="400" font-style="" opacity="1" y="20.375" transform="rotate(0)"><tspan id="SvgjsTspan1074" dy="16" x="10"><tspan id="SvgjsTspan1075" style="text-decoration:;">高级计算机语言</tspan></tspan><tspan id="SvgjsTspan1076" dy="16" x="10"><tspan id="SvgjsTspan1077" style="text-decoration:;">java</tspan></tspan></text></g></g><g id="SvgjsG1078"><path id="SvgjsPath1079" d="M964.0028533935547 270.00853729248047L1075.5028533935547 270.00853729248047L1075.5028533935547 270.00853729248047L1184.4028533935548 270.00853729248047" stroke="#323232" stroke-width="2" fill="none" marker-end="url(#SvgjsMarker1080)"></path></g><g id="SvgjsG1082" transform="translate(1188.0028533935547,235.00853729248047)"><path id="SvgjsPath1083" d="M 0 0L 100 0L 100 70L 0 70Z" stroke="rgba(50,50,50,1)" stroke-width="2" fill-opacity="1" fill="#ffffff"></path><g id="SvgjsG1084"><text id="SvgjsText1085" font-family="微软雅黑" text-anchor="start" font-size="13px" width="80px" fill="#323232" font-weight="400" align="middle" lineHeight="125%" anchor="start" family="微软雅黑" size="13px" weight="400" font-style="" opacity="1" y="24.375" transform="rotate(0)"><tspan id="SvgjsTspan1086" dy="16" x="10"><tspan id="SvgjsTspan1087" style="text-decoration:;">计算机网络</tspan></tspan></text></g></g><g id="SvgjsG1088"><path id="SvgjsPath1089" d="M1289.0028533935547 270.00853729248047L1329.0028533935547 270.00853729248047L1329.0028533935547 223.7358169555664L1366.4028533935548 223.7358169555664" stroke="#323232" stroke-width="2" fill="none" marker-end="url(#SvgjsMarker1090)"></path></g><g id="SvgjsG1092" transform="translate(1370.0028533935547,188.7358169555664)"><path id="SvgjsPath1093" d="M 0 0L 100 0L 100 70L 0 70Z" stroke="rgba(50,50,50,1)" stroke-width="2" fill-opacity="1" fill="#ffffff"></path><g id="SvgjsG1094"><text id="SvgjsText1095" font-family="微软雅黑" text-anchor="start" font-size="13px" width="80px" fill="#323232" font-weight="400" align="middle" lineHeight="125%" anchor="start" family="微软雅黑" size="13px" weight="400" font-style="" opacity="1" y="24.375" transform="rotate(0)"><tspan id="SvgjsTspan1096" dy="16" x="10"><tspan id="SvgjsTspan1097" style="text-decoration:;">Http</tspan></tspan></text></g></g><g id="SvgjsG1098"><path id="SvgjsPath1099" d="M1289.0028533935547 270.00853729248047L1329.0028533935547 270.00853729248047L1329.0028533935547 339.7358169555664L1366.4028533935548 339.7358169555664" stroke="#323232" stroke-width="2" fill="none" marker-end="url(#SvgjsMarker1100)"></path></g><g id="SvgjsG1102" transform="translate(1370.0028533935547,305.00853729248047)"><path id="SvgjsPath1103" d="M 0 0L 100 0L 100 70L 0 70Z" stroke="rgba(50,50,50,1)" stroke-width="2" fill-opacity="1" fill="#ffffff"></path><g id="SvgjsG1104"><text id="SvgjsText1105" font-family="微软雅黑" text-anchor="start" font-size="13px" width="80px" fill="#323232" font-weight="400" align="middle" lineHeight="125%" anchor="start" family="微软雅黑" size="13px" weight="400" font-style="" opacity="1" y="24.375" transform="rotate(0)"><tspan id="SvgjsTspan1106" dy="16" x="10"><tspan id="SvgjsTspan1107" style="text-decoration:;">TCP/IP</tspan></tspan></text></g></g><g id="SvgjsG1108" transform="translate(25.002853393554688,25.00853729248047)"><path id="SvgjsPath1109" d="M 0 0L 208 0L 224 16L 224 77.45453643798828L 0 77.45453643798828L 0 0Z" stroke="none" fill-opacity="1" fill="#ffffaa"></path><path id="SvgjsPath1110" d="M 208 0L 208 16L 224 16Z" stroke="none" fill-opacity="1" fill="#cdcdcd"></path><path id="SvgjsPath1111" d="M 0 0L 208 0L 224 16L 224 77.45453643798828L 0 77.45453643798828L 0 0Z" stroke="none" fill="none"></path><g id="SvgjsG1112"><text id="SvgjsText1113" font-family="微软雅黑" text-anchor="start" font-size="12px" width="204px" fill="#000000" font-weight="400" align="middle" lineHeight="125%" anchor="start" family="微软雅黑" size="12px" weight="400" font-style="" opacity="1" y="13.72726821899414" transform="rotate(0)"><tspan id="SvgjsTspan1114" dy="15" x="10"><tspan id="SvgjsTspan1115" style="text-decoration:;">《计算机科学导论》 by[美]佛罗赞</tspan></tspan><tspan id="SvgjsTspan1116" dy="15" x="10"><tspan id="SvgjsTspan1117" style="text-decoration:;">〈计算机组成原理〉 by 艾伦</tspan></tspan><tspan id="SvgjsTspan1118" dy="15" x="10"><tspan id="SvgjsTspan1119" style="text-decoration:;">《深入理解计算机系统》 by [美]Bryant</tspan></tspan></text></g></g><g id="SvgjsG1120" transform="translate(30.002853393554688,111.28128051757812)"><path id="SvgjsPath1121" d="M 0 0L 208 0L 224 16L 224 77.45453643798828L 0 77.45453643798828L 0 0Z" stroke="none" fill-opacity="1" fill="#ffffaa"></path><path id="SvgjsPath1122" d="M 208 0L 208 16L 224 16Z" stroke="none" fill-opacity="1" fill="#cdcdcd"></path><path id="SvgjsPath1123" d="M 0 0L 208 0L 224 16L 224 77.45453643798828L 0 77.45453643798828L 0 0Z" stroke="none" fill="none"></path><g id="SvgjsG1124"><text id="SvgjsText1125" font-family="微软雅黑" text-anchor="start" font-size="12px" width="204px" fill="#000000" font-weight="400" align="middle" lineHeight="125%" anchor="start" family="微软雅黑" size="12px" weight="400" font-style="" opacity="1" y="6.227268218994141" transform="rotate(0)"><tspan id="SvgjsTspan1126" dy="15" x="10"><tspan id="SvgjsTspan1127" style="text-decoration:;">《操作系统概念》by【美】西尔伯查</tspan></tspan><tspan id="SvgjsTspan1128" dy="15" x="10"><tspan id="SvgjsTspan1129" style="text-decoration:;">茨</tspan></tspan><tspan id="SvgjsTspan1130" dy="15" x="10"><tspan id="SvgjsTspan1131" style="text-decoration:;">《实用操作系统概念》by【美】西尔</tspan></tspan><tspan id="SvgjsTspan1132" dy="15" x="10"><tspan id="SvgjsTspan1133" style="text-decoration:;">伯查茨</tspan></tspan><tspan id="SvgjsTspan1134" dy="15" x="10"><tspan id="SvgjsTspan1135" style="text-decoration:;">《现代操作系统》</tspan></tspan></text></g></g><g id="SvgjsG1136" transform="translate(30.002853393554688,205.00853729248047)"><path id="SvgjsPath1137" d="M 0 0L 208 0L 224 16L 224 77.45453643798828L 0 77.45453643798828L 0 0Z" stroke="none" fill-opacity="1" fill="#ffffaa"></path><path id="SvgjsPath1138" d="M 208 0L 208 16L 224 16Z" stroke="none" fill-opacity="1" fill="#cdcdcd"></path><path id="SvgjsPath1139" d="M 0 0L 208 0L 224 16L 224 77.45453643798828L 0 77.45453643798828L 0 0Z" stroke="none" fill="none"></path><g id="SvgjsG1140"><text id="SvgjsText1141" font-family="微软雅黑" text-anchor="start" font-size="12px" width="204px" fill="#000000" font-weight="400" align="middle" lineHeight="125%" anchor="start" family="微软雅黑" size="12px" weight="400" font-style="" opacity="1" y="28.72726821899414" transform="rotate(0)"><tspan id="SvgjsTspan1142" dy="15" x="10"><tspan id="SvgjsTspan1143" style="text-decoration:;">数据库概念》 by 希尔伯沙茨</tspan></tspan></text></g></g><g id="SvgjsG1144" transform="translate(30.002853393554688,291.00853729248047)"><path id="SvgjsPath1145" d="M 0 0L 208 0L 224 16L 224 77.45453643798828L 0 77.45453643798828L 0 0Z" stroke="none" fill-opacity="1" fill="#ffffaa"></path><path id="SvgjsPath1146" d="M 208 0L 208 16L 224 16Z" stroke="none" fill-opacity="1" fill="#cdcdcd"></path><path id="SvgjsPath1147" d="M 0 0L 208 0L 224 16L 224 77.45453643798828L 0 77.45453643798828L 0 0Z" stroke="none" fill="none"></path><g id="SvgjsG1148"><text id="SvgjsText1149" font-family="微软雅黑" text-anchor="start" font-size="12px" width="204px" fill="#000000" font-weight="400" align="middle" lineHeight="125%" anchor="start" family="微软雅黑" size="12px" weight="400" font-style="" opacity="1" y="-1.2727317810058594" transform="rotate(0)"><tspan id="SvgjsTspan1150" dy="15" x="10"><tspan id="SvgjsTspan1151" style="text-decoration:;">《MySQL CookBook》by 迪布瓦</tspan></tspan><tspan id="SvgjsTspan1152" dy="15" x="10"><tspan id="SvgjsTspan1153" style="text-decoration:;">《高可用MySQL（第二版）》</tspan></tspan><tspan id="SvgjsTspan1154" dy="15" x="10"><tspan id="SvgjsTspan1155" style="text-decoration:;">《高性能MySQL（第二版）》</tspan></tspan><tspan id="SvgjsTspan1156" dy="15" x="10"><tspan id="SvgjsTspan1157" style="text-decoration:;">《MYSQL技术内幕 - InnpDB 存储引</tspan></tspan><tspan id="SvgjsTspan1158" dy="15" x="10"><tspan id="SvgjsTspan1159" style="text-decoration:;">擎》</tspan></tspan></text></g></g><g id="SvgjsG1160" transform="translate(30.002853393554688,377.00853729248047)"><path id="SvgjsPath1161" d="M 0 0L 208 0L 224 16L 224 77.45453643798828L 0 77.45453643798828L 0 0Z" stroke="none" fill-opacity="1" fill="#ffffaa"></path><path id="SvgjsPath1162" d="M 208 0L 208 16L 224 16Z" stroke="none" fill-opacity="1" fill="#cdcdcd"></path><path id="SvgjsPath1163" d="M 0 0L 208 0L 224 16L 224 77.45453643798828L 0 77.45453643798828L 0 0Z" stroke="none" fill="none"></path><g id="SvgjsG1164"><text id="SvgjsText1165" font-family="微软雅黑" text-anchor="start" font-size="12px" width="204px" fill="#000000" font-weight="400" align="middle" lineHeight="125%" anchor="start" family="微软雅黑" size="12px" weight="400" font-style="" opacity="1" y="28.72726821899414" transform="rotate(0)"><tspan id="SvgjsTspan1166" dy="15" x="10"><tspan id="SvgjsTspan1167" style="text-decoration:;">《计算机网络》 by 塔嫩鲍姆</tspan></tspan></text></g></g><g id="SvgjsG1168" transform="translate(30.002853393554688,467.2812690734863)"><path id="SvgjsPath1169" d="M 0 0L 208 0L 224 16L 224 77.45453643798828L 0 77.45453643798828L 0 0Z" stroke="none" fill-opacity="1" fill="#ffffaa"></path><path id="SvgjsPath1170" d="M 208 0L 208 16L 224 16Z" stroke="none" fill-opacity="1" fill="#cdcdcd"></path><path id="SvgjsPath1171" d="M 0 0L 208 0L 224 16L 224 77.45453643798828L 0 77.45453643798828L 0 0Z" stroke="none" fill="none"></path><g id="SvgjsG1172"><text id="SvgjsText1173" font-family="微软雅黑" text-anchor="start" font-size="12px" width="204px" fill="#000000" font-weight="400" align="middle" lineHeight="125%" anchor="start" family="微软雅黑" size="12px" weight="400" font-style="" opacity="1" y="28.72726821899414" transform="rotate(0)"><tspan id="SvgjsTspan1174" dy="15" x="10"><tspan id="SvgjsTspan1175" style="text-decoration:;">《鸟哥的Liux私房菜》</tspan></tspan></text></g></g><g id="SvgjsG1176" transform="translate(30.002853393554688,557.5540008544922)"><path id="SvgjsPath1177" d="M 0 0L 254.90908813476562 0L 270.9090881347656 16L 270.9090881347656 230.0454330444336L 0 230.0454330444336L 0 0Z" stroke="none" fill-opacity="1" fill="#ffffaa"></path><path id="SvgjsPath1178" d="M 254.90908813476562 0L 254.90908813476562 16L 270.9090881347656 16Z" stroke="none" fill-opacity="1" fill="#cdcdcd"></path><path id="SvgjsPath1179" d="M 0 0L 254.90908813476562 0L 270.9090881347656 16L 270.9090881347656 230.0454330444336L 0 230.0454330444336L 0 0Z" stroke="none" fill="none"></path><g id="SvgjsG1180"><text id="SvgjsText1181" font-family="微软雅黑" text-anchor="start" font-size="12px" width="251px" fill="#000000" font-weight="400" align="top" lineHeight="125%" anchor="start" family="微软雅黑" size="12px" weight="400" font-style="" opacity="1" y="7.5" transform="rotate(0)"><tspan id="SvgjsTspan1182" dy="15" x="10"><tspan id="SvgjsTspan1183" style="text-decoration:;">高级语言 - Java</tspan></tspan><tspan id="SvgjsTspan1184" dy="15" x="10"><tspan id="SvgjsTspan1185" style="text-decoration:;">《Java核心技术 - 卷1》</tspan></tspan><tspan id="SvgjsTspan1186" dy="15" x="10"><tspan id="SvgjsTspan1187" style="text-decoration:;">《Java核心技术 - 卷2》</tspan></tspan><tspan id="SvgjsTspan1188" dy="15" x="10"><tspan id="SvgjsTspan1189" style="text-decoration:;">《Java编程思想》</tspan></tspan><tspan id="SvgjsTspan1190" dy="15" x="10"><tspan id="SvgjsTspan1191" style="text-decoration:;">《Effective Java》</tspan></tspan><tspan id="SvgjsTspan1192" dy="15" x="10"><tspan id="SvgjsTspan1193" style="text-decoration:;"> </tspan></tspan><tspan id="SvgjsTspan1194" dy="15" x="10"><tspan id="SvgjsTspan1195" style="text-decoration:;">《深入理解Java虚拟机》by 周志明</tspan></tspan><tspan id="SvgjsTspan1196" dy="15" x="10"><tspan id="SvgjsTspan1197" style="text-decoration:;"> </tspan></tspan><tspan id="SvgjsTspan1198" dy="15" x="10"><tspan id="SvgjsTspan1199" style="text-decoration:;">Sping 实战</tspan></tspan></text></g></g><g id="SvgjsG1200" transform="translate(1417.0028533935547,444.32673263549805)"><path id="SvgjsPath1201" d="M 0 0L 52.54542541503906 0L 52.54542541503906 29.909072875976562L 0 29.909072875976562Z" stroke="rgba(50,50,50,1)" stroke-width="2" fill-opacity="1" fill="#ffffff"></path><g id="SvgjsG1202"><text id="SvgjsText1203" font-family="微软雅黑" text-anchor="middle" font-size="13px" width="33px" fill="#323232" font-weight="400" align="middle" lineHeight="125%" anchor="middle" family="微软雅黑" size="13px" weight="400" font-style="" opacity="1" y="4.329536437988281" transform="rotate(0)"><tspan id="SvgjsTspan1204" dy="16" x="26.5"><tspan id="SvgjsTspan1205" style="text-decoration:;">Netty</tspan></tspan></text></g></g><g id="SvgjsG1206" transform="translate(1417.0028533935547,493.50853729248047)"><path id="SvgjsPath1207" d="M 0 0L 59.54542541503906 0L 59.54542541503906 20.818195343017578L 0 20.818195343017578Z" stroke="rgba(50,50,50,1)" stroke-width="2" fill-opacity="1" fill="#ffffff"></path><g id="SvgjsG1208"><text id="SvgjsText1209" font-family="微软雅黑" text-anchor="middle" font-size="13px" width="40px" fill="#323232" font-weight="400" align="middle" lineHeight="125%" anchor="middle" family="微软雅黑" size="13px" weight="400" font-style="" opacity="1" y="-0.21590232849121094" transform="rotate(0)"><tspan id="SvgjsTspan1210" dy="16" x="30"><tspan id="SvgjsTspan1211" style="text-decoration:;">JVM</tspan></tspan></text></g></g><g id="SvgjsG1212" transform="translate(631.0028533935547,527.1449165344238)"><path id="SvgjsPath1213" d="M 0 0L 117 0L 117 47.99998474121094L 0 47.99998474121094Z" stroke="rgba(50,50,50,1)" stroke-width="2" fill-opacity="1" fill="#ffffff"></path><g id="SvgjsG1214"><text id="SvgjsText1215" font-family="微软雅黑" text-anchor="start" font-size="13px" width="97px" fill="#323232" font-weight="400" align="middle" lineHeight="125%" anchor="start" family="微软雅黑" size="13px" weight="400" font-style="" opacity="1" y="13.374992370605469" transform="rotate(0)"><tspan id="SvgjsTspan1216" dy="16" x="10"><tspan id="SvgjsTspan1217" style="text-decoration:;">Linux 操作系统</tspan></tspan></text></g></g><g id="SvgjsG1218"><path id="SvgjsPath1219" d="M689.5028533935547 500.0994529724121L689.5028533935547 513.122184753418L689.5028533935547 513.122184753418L689.5028533935547 523.5449165344238" stroke="#323232" stroke-width="2" fill="none" marker-end="url(#SvgjsMarker1220)"></path></g><g id="SvgjsG1222"><path id="SvgjsPath1223" d="M1175.0028533935547 524.326732635498L1175.0028533935547 543.4176349639893L1175.0028533935547 543.4176349639893L1175.0028533935547 559.9085372924804" stroke="#323232" stroke-width="2" fill="none" marker-end="url(#SvgjsMarker1224)"></path></g><g id="SvgjsG1226" transform="translate(1125.0028533935547,563.5085372924805)"><path id="SvgjsPath1227" d="M 0 0L 100 0L 100 70L 0 70Z" stroke="rgba(50,50,50,1)" stroke-width="2" fill-opacity="1" fill="#ffffff"></path><g id="SvgjsG1228"><text id="SvgjsText1229" font-family="微软雅黑" text-anchor="middle" font-size="13px" width="80px" fill="#323232" font-weight="400" align="middle" lineHeight="125%" anchor="middle" family="微软雅黑" size="13px" weight="400" font-style="" opacity="1" y="24.375" transform="rotate(0)"><tspan id="SvgjsTspan1230" dy="16" x="50"><tspan id="SvgjsTspan1231" style="text-decoration:;">框架</tspan></tspan></text></g></g><g id="SvgjsG1232" transform="translate(1225.0028533935547,685.917610168457)"><path id="SvgjsPath1233" d="M 0 0L 89.45453262329102 0L 89.45453262329102 20L 0 20Z" stroke="rgba(50,50,50,1)" stroke-width="2" fill-opacity="1" fill="#ffffff"></path><g id="SvgjsG1234"><text id="SvgjsText1235" font-family="微软雅黑" text-anchor="middle" font-size="13px" width="70px" fill="#323232" font-weight="400" align="middle" lineHeight="125%" anchor="middle" family="微软雅黑" size="13px" weight="400" font-style="" opacity="1" y="-0.625" transform="rotate(0)"><tspan id="SvgjsTspan1236" dy="16" x="45"><tspan id="SvgjsTspan1237" style="text-decoration:;">Spring</tspan></tspan></text></g></g><g id="SvgjsG1238" transform="translate(1065.5028533935547,687.5994338989258)"><path id="SvgjsPath1239" d="M 0 0L 81.95453262329102 0L 81.95453262329102 23.31817626953125L 0 23.31817626953125Z" stroke="rgba(50,50,50,1)" stroke-width="2" fill-opacity="1" fill="#ffffff"></path><g id="SvgjsG1240"><text id="SvgjsText1241" font-family="微软雅黑" text-anchor="middle" font-size="13px" width="62px" fill="#323232" font-weight="400" align="middle" lineHeight="125%" anchor="middle" family="微软雅黑" size="13px" weight="400" font-style="" opacity="1" y="1.034088134765625" transform="rotate(0)"><tspan id="SvgjsTspan1242" dy="16" x="41"><tspan id="SvgjsTspan1243" style="text-decoration:;">mybatis</tspan></tspan></text></g></g><g id="SvgjsG1244" transform="translate(1417.0028533935547,563.5994338989258)"><path id="SvgjsPath1245" d="M 0 0L 79.54542541503906 0L 79.54542541503906 20L 0 20Z" stroke="rgba(50,50,50,1)" stroke-width="2" fill-opacity="1" fill="#ffffff"></path><g id="SvgjsG1246"><text id="SvgjsText1247" font-family="微软雅黑" text-anchor="middle" font-size="13px" width="60px" fill="#323232" font-weight="400" align="middle" lineHeight="125%" anchor="middle" family="微软雅黑" size="13px" weight="400" font-style="" opacity="1" y="-0.625" transform="rotate(0)"><tspan id="SvgjsTspan1248" dy="16" x="40"><tspan id="SvgjsTspan1249" style="text-decoration:;">设计模式</tspan></tspan></text></g></g><g id="SvgjsG1250" transform="translate(1417.0028533935547,527.5539855957031)"><path id="SvgjsPath1251" d="M 0 0L 116.54542541503906 0L 116.54542541503906 24.090904235839844L 0 24.090904235839844Z" stroke="rgba(50,50,50,1)" stroke-width="2" fill-opacity="1" fill="#ffffff"></path><g id="SvgjsG1252"><text id="SvgjsText1253" font-family="微软雅黑" text-anchor="middle" font-size="13px" width="97px" fill="#323232" font-weight="400" align="middle" lineHeight="125%" anchor="middle" family="微软雅黑" size="13px" weight="400" font-style="" opacity="1" y="1.4204521179199219" transform="rotate(0)"><tspan id="SvgjsTspan1254" dy="16" x="58.5"><tspan id="SvgjsTspan1255" style="text-decoration:;">数据结构与算法</tspan></tspan></text></g></g><g id="SvgjsG1256"><path id="SvgjsPath1257" d="M1264.0028533935547 483.82673263549805L1340.0028533935547 483.82673263549805L1340.0028533935547 459.2812690734863L1413.4028533935548 459.2812690734863" stroke="#323232" stroke-width="2" fill="none" marker-end="url(#SvgjsMarker1258)"></path></g><g id="SvgjsG1260"><path id="SvgjsPath1261" d="M1264.0028533935547 483.82673263549805L1340.0028533935547 483.82673263549805L1340.0028533935547 503.91763496398926L1413.4028533935548 503.91763496398926" stroke="#323232" stroke-width="2" fill="none" marker-end="url(#SvgjsMarker1262)"></path></g><g id="SvgjsG1264"><path id="SvgjsPath1265" d="M1264.0028533935547 483.82673263549805L1340.0028533935547 483.82673263549805L1340.0028533935547 539.599437713623L1413.4028533935548 539.599437713623" stroke="#323232" stroke-width="2" fill="none" marker-end="url(#SvgjsMarker1266)"></path></g><g id="SvgjsG1268"><path id="SvgjsPath1269" d="M1264.0028533935547 483.82673263549805L1340.0028533935547 483.82673263549805L1340.0028533935547 576.2098236083984L1413.4028533935548 576.2098236083984" stroke="#323232" stroke-width="2" fill="none" marker-end="url(#SvgjsMarker1270)"></path></g><g id="SvgjsG1272" transform="translate(863.0028533935547,444.32673263549805)"><path id="SvgjsPath1273" d="M 0 0L 100 0L 100 70L 0 70Z" stroke="rgba(50,50,50,1)" stroke-width="2" fill-opacity="1" fill="#ffffff"></path><g id="SvgjsG1274"><text id="SvgjsText1275" font-family="微软雅黑" text-anchor="middle" font-size="13px" width="80px" fill="#323232" font-weight="400" align="middle" lineHeight="125%" anchor="middle" family="微软雅黑" size="13px" weight="400" font-style="" opacity="1" y="-0.125" transform="rotate(0)"><tspan id="SvgjsTspan1276" dy="16" x="50"><tspan id="SvgjsTspan1277" style="text-decoration:;">高级计算机语</tspan></tspan><tspan id="SvgjsTspan1278" dy="16" x="50"><tspan id="SvgjsTspan1279" style="text-decoration:;">言</tspan></tspan><tspan id="SvgjsTspan1280" dy="16" x="50"><tspan id="SvgjsTspan1281" style="text-decoration:;">C</tspan></tspan><tspan id="SvgjsTspan1282" dy="16" x="50"><tspan id="SvgjsTspan1283" style="text-decoration:;">C++</tspan></tspan></text></g></g><g id="SvgjsG1284"><path id="SvgjsPath1285" d="M1175.0028533935547 634.5085372924805L1175.0028533935547 660.6524069316552L1098.6944391059876 660.6524069316552L1098.6944391059876 684.1962765708299" stroke="#323232" stroke-width="2" fill="none" marker-end="url(#SvgjsMarker1286)"></path></g><g id="SvgjsG1288"><path id="SvgjsPath1289" d="M1175.0028533935547 634.5085372924805L1175.0028533935547 659.7974897112165L1277.7810276412963 659.7974897112165L1277.7810276412963 682.4864421299526" stroke="#323232" stroke-width="2" fill="none" marker-end="url(#SvgjsMarker1290)"></path></g><g id="SvgjsG1292"><path id="SvgjsPath1293" d="M913.0028533935547 306.00853729248047L913.0028533935547 374.66763496398926L913.0028533935547 374.66763496398926L913.0028533935547 440.726732635498" stroke="#323232" stroke-width="2" fill="none" marker-end="url(#SvgjsMarker1294)"></path></g><g id="SvgjsG1296"><path id="SvgjsPath1297" d="M1106.4801197052002 711.917610168457L1106.4801197052002 723.1903381347656L1106.4801197052002 723.1903381347656L1106.4801197052002 731.8630661010742" stroke="#323232" stroke-width="2" fill="none" marker-end="url(#SvgjsMarker1298)"></path></g><g id="SvgjsG1300" transform="translate(1062.0028533935547,735.4630661010742)"><path id="SvgjsPath1301" d="M 0 0L 88.95453262329102 0L 88.95453262329102 20.454544067382812L 0 20.454544067382812Z" stroke="rgba(50,50,50,1)" stroke-width="2" fill-opacity="1" fill="#ffffff"></path><g id="SvgjsG1302"><text id="SvgjsText1303" font-family="微软雅黑" text-anchor="middle" font-size="13px" width="69px" fill="#323232" font-weight="400" align="middle" lineHeight="125%" anchor="middle" family="微软雅黑" size="13px" weight="400" font-style="" opacity="1" y="-0.39772796630859375" transform="rotate(0)"><tspan id="SvgjsTspan1304" dy="16" x="44.5"><tspan id="SvgjsTspan1305" style="text-decoration:;">mybatis plus</tspan></tspan></text></g></g><g id="SvgjsG1306"><path id="SvgjsPath1307" d="M1315.4573860168457 695.917610168457L1341.0301197052001 695.917610168457L1341.0301197052001 695.917610168457L1364.0028533935547 695.917610168457" stroke="#323232" stroke-width="2" fill="none" marker-end="url(#SvgjsMarker1308)"></path></g><g id="SvgjsG1310" transform="translate(1370.0028533935547,679.78125)"><path id="SvgjsPath1311" d="M 0 0L 80 0L 80 32.27272033691406L 0 32.27272033691406Z" stroke="rgba(50,50,50,1)" stroke-width="2" fill-opacity="1" fill="#ffffff"></path><g id="SvgjsG1312"><text id="SvgjsText1313" font-family="微软雅黑" text-anchor="middle" font-size="13px" width="60px" fill="#323232" font-weight="400" align="middle" lineHeight="125%" anchor="middle" family="微软雅黑" size="13px" weight="400" font-style="" opacity="1" y="5.511360168457031" transform="rotate(0)"><tspan id="SvgjsTspan1314" dy="16" x="40"><tspan id="SvgjsTspan1315" style="text-decoration:;">redis</tspan></tspan></text></g></g><g id="SvgjsG1316"><path id="SvgjsPath1317" d="M1451.0028533935547 695.917610168457L1474.681068147708 695.917610168457L1474.681068147708 695.917610168457L1495.7592829018613 695.917610168457" stroke="#323232" stroke-width="2" fill="none" marker-end="url(#SvgjsMarker1318)"></path></g><g id="SvgjsG1320" transform="translate(1496.5482788085938,679.78125)"><path id="SvgjsPath1321" d="M 0 0L 71.90910720825195 0L 71.90910720825195 32.27272033691406L 0 32.27272033691406Z" stroke="rgba(50,50,50,1)" stroke-width="2" fill-opacity="1" fill="#ffffff"></path><g id="SvgjsG1322"><text id="SvgjsText1323" font-family="微软雅黑" text-anchor="middle" font-size="13px" width="52px" fill="#323232" font-weight="400" align="middle" lineHeight="125%" anchor="middle" family="微软雅黑" size="13px" weight="400" font-style="" opacity="1" y="5.511360168457031" transform="rotate(0)"><tspan id="SvgjsTspan1324" dy="16" x="36"><tspan id="SvgjsTspan1325" style="text-decoration:;">rabbitmq</tspan></tspan></text></g></g></svg>