<svg width="3611" height="2388" xmlns="http://www.w3.org/2000/svg" xmlns:xlink="http://www.w3.org/1999/xlink" xml:space="preserve" overflow="hidden"><defs><linearGradient x1="3467" y1="1092" x2="3467" y2="1482" gradientUnits="userSpaceOnUse" spreadMethod="reflect" id="fill0"><stop offset="0" stop-color="#F7BDA4" stop-opacity="1"/><stop offset="0.5" stop-color="#F5B195" stop-opacity="1"/><stop offset="1" stop-color="#F8A581" stop-opacity="1"/></linearGradient><linearGradient x1="1861.5" y1="457" x2="1861.5" y2="717" gradientUnits="userSpaceOnUse" spreadMethod="reflect" id="fill1"><stop offset="0" stop-color="#B5D5A7" stop-opacity="1"/><stop offset="0.5" stop-color="#AACE99" stop-opacity="1"/><stop offset="1" stop-color="#9CCA86" stop-opacity="1"/></linearGradient><linearGradient x1="717" y1="1092" x2="717" y2="1482" gradientUnits="userSpaceOnUse" spreadMethod="reflect" id="fill2"><stop offset="0" stop-color="#81B861" stop-opacity="1"/><stop offset="0.5" stop-color="#6FB242" stop-opacity="1"/><stop offset="1" stop-color="#61A235" stop-opacity="1"/></linearGradient><linearGradient x1="2565.5" y1="110" x2="2565.5" y2="506" gradientUnits="userSpaceOnUse" spreadMethod="reflect" id="fill3"><stop offset="0" stop-color="#FFDD9C" stop-opacity="1"/><stop offset="0.5" stop-color="#FFD78E" stop-opacity="1"/><stop offset="1" stop-color="#FFD479" stop-opacity="1"/></linearGradient><linearGradient x1="2768" y1="110" x2="2768" y2="506" gradientUnits="userSpaceOnUse" spreadMethod="reflect" id="fill4"><stop offset="0" stop-color="#FFDD9C" stop-opacity="1"/><stop offset="0.5" stop-color="#FFD78E" stop-opacity="1"/><stop offset="1" stop-color="#FFD479" stop-opacity="1"/></linearGradient><linearGradient x1="2970" y1="110" x2="2970" y2="506" gradientUnits="userSpaceOnUse" spreadMethod="reflect" id="fill5"><stop offset="0" stop-color="#FFDD9C" stop-opacity="1"/><stop offset="0.5" stop-color="#FFD78E" stop-opacity="1"/><stop offset="1" stop-color="#FFD479" stop-opacity="1"/></linearGradient><linearGradient x1="588" y1="1866" x2="588" y2="2263" gradientUnits="userSpaceOnUse" spreadMethod="reflect" id="fill6"><stop offset="0" stop-color="#FFDD9C" stop-opacity="1"/><stop offset="0.5" stop-color="#FFD78E" stop-opacity="1"/><stop offset="1" stop-color="#FFD479" stop-opacity="1"/></linearGradient><linearGradient x1="790.5" y1="1866" x2="790.5" y2="2263" gradientUnits="userSpaceOnUse" spreadMethod="reflect" id="fill7"><stop offset="0" stop-color="#FFDD9C" stop-opacity="1"/><stop offset="0.5" stop-color="#FFD78E" stop-opacity="1"/><stop offset="1" stop-color="#FFD479" stop-opacity="1"/></linearGradient><linearGradient x1="993" y1="1866" x2="993" y2="2263" gradientUnits="userSpaceOnUse" spreadMethod="reflect" id="fill8"><stop offset="0" stop-color="#FFDD9C" stop-opacity="1"/><stop offset="0.5" stop-color="#FFD78E" stop-opacity="1"/><stop offset="1" stop-color="#FFD479" stop-opacity="1"/></linearGradient></defs><g transform="translate(-55 -32)"><g><text fill="#000000" fill-opacity="1" font-family="Calibri,Calibri_MSFontService,sans-serif" font-style="normal" font-variant="normal" font-weight="400" font-stretch="normal" font-size="83" text-anchor="start" direction="ltr" writing-mode="lr-tb" unicode-bidi="normal" text-decoration="none" transform="matrix(1 0 0 1 105.513 136)">WorkManager</text><path d="M3272 1287C3272 1179.3 3359.3 1092 3467 1092 3574.7 1092 3662 1179.3 3662 1287 3662 1394.7 3574.7 1482 3467 1482 3359.3 1482 3272 1394.7 3272 1287Z" stroke="#ED7D31" stroke-width="2.29167" stroke-linecap="butt" stroke-linejoin="miter" stroke-miterlimit="8" stroke-opacity="1" fill="url(#fill0)" fill-rule="evenodd"/><text fill="#000000" fill-opacity="1" font-family="Calibri,Calibri_MSFontService,sans-serif" font-style="normal" font-variant="normal" font-weight="400" font-stretch="normal" font-size="83" text-anchor="start" direction="ltr" writing-mode="lr-tb" unicode-bidi="normal" text-decoration="none" transform="matrix(1 0 0 1 3421.15 1314)">OS</text><path d="M1605 587C1605 515.203 1719.84 457 1861.5 457 2003.16 457 2118 515.203 2118 587 2118 658.797 2003.16 717 1861.5 717 1719.84 717 1605 658.797 1605 587Z" stroke="#70AD47" stroke-width="2.29167" stroke-linecap="butt" stroke-linejoin="miter" stroke-miterlimit="8" stroke-opacity="1" fill="url(#fill1)" fill-rule="evenodd"/><text fill="#000000" fill-opacity="1" font-family="Calibri,Calibri_MSFontService,sans-serif" font-style="normal" font-variant="normal" font-weight="400" font-stretch="normal" font-size="48" text-anchor="start" direction="ltr" writing-mode="lr-tb" unicode-bidi="normal" text-decoration="none" transform="matrix(1 0 0 1 1720.03 603)">WorkManager</text><path d="M7.00691e-07-4.58333 2337.74-4.58298 2337.74 4.58369-7.00691e-07 4.58333ZM2333.16-13.7496 2360.66 0.000360892 2333.16 13.7504Z" fill="#4472C4" fill-rule="nonzero" fill-opacity="1" transform="matrix(-1 0 0 1 3273.16 1287.5)"/><text fill="#000000" fill-opacity="1" font-family="Calibri,Calibri_MSFontService,sans-serif" font-style="normal" font-variant="normal" font-weight="400" font-stretch="normal" font-size="50" text-anchor="start" direction="ltr" writing-mode="lr-tb" unicode-bidi="normal" text-decoration="none" transform="matrix(1 0 0 1 1903.11 1354)">Awake app</text><text fill="#000000" fill-opacity="1" font-family="Calibri,Calibri_MSFontService,sans-serif" font-style="normal" font-variant="normal" font-weight="400" font-stretch="normal" font-size="55" text-anchor="start" direction="ltr" writing-mode="lr-tb" unicode-bidi="normal" text-decoration="none" transform="matrix(1 0 0 1 2466.99 669)">Submit scheduled Workers</text><path d="M522 1287C522 1179.3 609.305 1092 717 1092 824.696 1092 912 1179.3 912 1287 912 1394.7 824.696 1482 717 1482 609.305 1482 522 1394.7 522 1287Z" stroke="#70AD47" stroke-width="2.29167" stroke-linecap="butt" stroke-linejoin="miter" stroke-miterlimit="8" stroke-opacity="1" fill="url(#fill2)" fill-rule="evenodd"/><text fill="#FFFFFF" fill-opacity="1" font-family="Calibri,Calibri_MSFontService,sans-serif" font-style="normal" font-variant="normal" font-weight="400" font-stretch="normal" font-size="83" text-anchor="start" direction="ltr" writing-mode="lr-tb" unicode-bidi="normal" text-decoration="none" transform="matrix(1 0 0 1 649.533 1314)">App</text><rect x="2499" y="110" width="133" height="396" stroke="#FFC000" stroke-width="2.29167" stroke-linecap="butt" stroke-linejoin="miter" stroke-miterlimit="8" stroke-opacity="1" fill="url(#fill3)"/><rect x="2702" y="110" width="132" height="396" stroke="#FFC000" stroke-width="2.29167" stroke-linecap="butt" stroke-linejoin="miter" stroke-miterlimit="8" stroke-opacity="1" fill="url(#fill4)"/><rect x="2904" y="110" width="132" height="396" stroke="#FFC000" stroke-width="2.29167" stroke-linecap="butt" stroke-linejoin="miter" stroke-miterlimit="8" stroke-opacity="1" fill="url(#fill5)"/><rect x="522" y="1866" width="132" height="397" stroke="#FFC000" stroke-width="2.29167" stroke-linecap="butt" stroke-linejoin="miter" stroke-miterlimit="8" stroke-opacity="1" fill="url(#fill6)"/><rect x="724" y="1866" width="133" height="397" stroke="#FFC000" stroke-width="2.29167" stroke-linecap="butt" stroke-linejoin="miter" stroke-miterlimit="8" stroke-opacity="1" fill="url(#fill7)"/><rect x="927" y="1866" width="132" height="397" stroke="#FFC000" stroke-width="2.29167" stroke-linecap="butt" stroke-linejoin="miter" stroke-miterlimit="8" stroke-opacity="1" fill="url(#fill8)"/><path d="M722.082 1482.41 729.064 1832.27 719.9 1832.45 712.917 1482.59ZM738.138 1827.5 724.939 1855.27 710.643 1828.05Z" fill="#4472C4" fill-rule="nonzero" fill-opacity="1"/><path d="M714.062 1092.35 714.062 584.062 1582.73 584.062 1582.73 590.938 717.5 590.938 720.937 587.5 720.937 1092.35ZM1578.15 573.75 1605.65 587.5 1578.15 601.25Z" fill="#70AD47" fill-rule="nonzero" fill-opacity="1"/><path d="M2118.5 584.062 3471.71 584.062 3471.71 1069.43 3464.83 1069.43 3464.83 587.5 3468.27 590.937 2118.5 590.937ZM3482.02 1064.85 3468.27 1092.35 3454.52 1064.85Z" fill="#70AD47" fill-rule="nonzero" fill-opacity="1"/><text fill="#000000" fill-opacity="1" font-family="Calibri,Calibri_MSFontService,sans-serif" font-style="normal" font-variant="normal" font-weight="400" font-stretch="normal" font-size="55" text-anchor="start" direction="ltr" writing-mode="lr-tb" unicode-bidi="normal" text-decoration="none" transform="matrix(1 0 0 1 602.128 2368)">Worker do work </text></g></g></svg>