<svg id="SvgjsSvg1001" width="577.5597283779045" height="276.4142628205128" xmlns="http://www.w3.org/2000/svg" version="1.1" xmlns:xlink="http://www.w3.org/1999/xlink" xmlns:svgjs="http://svgjs.com/svgjs"><defs id="SvgjsDefs1002"><marker id="SvgjsMarker1026" markerWidth="14" markerHeight="10" refX="10" refY="5" viewBox="0 0 14 10" orient="auto" markerUnits="userSpaceOnUse" stroke-dasharray="0,0"><path id="SvgjsPath1027" d="M0,0 L14,5 L0,10 L0,0" fill="#323232" stroke="#323232" stroke-width="1"></path></marker><marker id="SvgjsMarker1030" markerWidth="14" markerHeight="10" refX="10" refY="5" viewBox="0 0 14 10" orient="auto" markerUnits="userSpaceOnUse" stroke-dasharray="0,0"><path id="SvgjsPath1031" d="M0,0 L14,5 L0,10 L0,0" fill="#323232" stroke="#323232" stroke-width="1"></path></marker></defs><g id="SvgjsG1008" transform="translate(30.291463216145843,71.2263390956781)"><path id="SvgjsPath1009" d="M 0 0L 96 0L 96 54L 0 54Z" stroke="rgba(33,41,48,1)" stroke-width="2" fill-opacity="1" fill="#ffffff"></path><g id="SvgjsG1010"><text id="SvgjsText1011" font-family="微软雅黑" text-anchor="middle" font-size="13px" width="76px" fill="#323232" font-weight="400" align="middle" lineHeight="125%" anchor="middle" family="微软雅黑" size="13px" weight="400" font-style="" opacity="1" y="-0.125" transform="rotate(0)"><tspan id="SvgjsTspan1012" dy="16" x="48"><tspan id="SvgjsTspan1013" style="text-decoration:;">Network</tspan></tspan><tspan id="SvgjsTspan1014" dy="16" x="48"><tspan id="SvgjsTspan1015" style="text-decoration:;">/</tspan></tspan><tspan id="SvgjsTspan1016" dy="16" x="48"><tspan id="SvgjsTspan1017" style="text-decoration:;">Local</tspan></tspan></text></g></g><g id="SvgjsG1018" transform="translate(454.04919973250526,71.2263390956781)"><path id="SvgjsPath1019" d="M 0 0L 96 0L 96 54L 0 54Z" stroke="rgba(33,41,48,1)" stroke-width="2" fill-opacity="1" fill="#ffffff"></path><g id="SvgjsG1020"><text id="SvgjsText1021" font-family="微软雅黑" text-anchor="middle" font-size="13px" width="76px" fill="#323232" font-weight="400" align="middle" lineHeight="125%" anchor="middle" family="微软雅黑" size="13px" weight="400" font-style="" opacity="1" y="16.375" transform="rotate(0)"><tspan id="SvgjsTspan1022" dy="16" x="48"><tspan id="SvgjsTspan1023" style="text-decoration:;">内存中的App</tspan></tspan></text></g></g><g id="SvgjsG1024"><path id="SvgjsPath1025" d="M126.08694820387612 116.42376491192923L289.8986387863133 116.42376491192923L289.8986387863133 116.42376491192923L451.1103293687504 116.42376491192923" stroke="#323232" stroke-width="2" fill="none" marker-end="url(#SvgjsMarker1026)"></path></g><g id="SvgjsG1028"><path id="SvgjsPath1029" d="M453.22464898632893 76.77089681027763L290.1876121409008 76.77089681027763L290.1876121409008 76.77089681027763L129.75057529547277 76.77089681027763" stroke="#323232" stroke-width="2" fill="none" marker-end="url(#SvgjsMarker1030)"></path></g><g id="SvgjsG1032" transform="translate(249.22749837239587,25.006208175267943)"><path id="SvgjsPath1033" d="M 0 0L 100 0L 100 40L 0 40Z" stroke="none" fill="none"></path><g id="SvgjsG1034"><text id="SvgjsText1035" font-family="微软雅黑" text-anchor="middle" font-size="13px" width="100px" fill="#323232" font-weight="400" align="middle" lineHeight="125%" anchor="middle" family="微软雅黑" size="13px" weight="400" font-style="" opacity="1" y="0.875" transform="rotate(0)"><tspan id="SvgjsTspan1036" dy="16" x="50"><tspan id="SvgjsTspan1037" style="text-decoration:;">Serialize </tspan></tspan><tspan id="SvgjsTspan1038" dy="16" x="50"><tspan id="SvgjsTspan1039" style="text-decoration:;">（writeObject）</tspan></tspan></text></g></g><g id="SvgjsG1040" transform="translate(249.22749837239587,143.72415689321656)"><path id="SvgjsPath1041" d="M 0 0L 100 0L 100 40L 0 40Z" stroke="none" fill="none"></path><g id="SvgjsG1042"><text id="SvgjsText1043" font-family="微软雅黑" text-anchor="middle" font-size="13px" width="100px" fill="#323232" font-weight="400" align="middle" lineHeight="125%" anchor="middle" family="微软雅黑" size="13px" weight="400" font-style="" opacity="1" y="0.875" transform="rotate(0)"><tspan id="SvgjsTspan1044" dy="16" x="50"><tspan id="SvgjsTspan1045" style="text-decoration:;font-style: italic;">Derialize</tspan></tspan><tspan id="SvgjsTspan1046" dy="16" x="50"><tspan id="SvgjsTspan1047" style="text-decoration:;font-style: italic;">(</tspan><tspan id="SvgjsTspan1048" style="text-decoration:;">readObject</tspan><tspan id="SvgjsTspan1049" style="text-decoration:;font-size: inherit; font-style: italic;">)</tspan></tspan></text></g></g><g id="SvgjsG1050" transform="translate(25.009411934094572,130.90364407270386)"><path id="SvgjsPath1051" d="M 0 0L 84 0L 100 16L 100 100L 0 100L 0 0Z" stroke="none" fill-opacity="1" fill="#fff7bc"></path><path id="SvgjsPath1052" d="M 84 0L 84 16L 100 16Z" stroke="none" fill-opacity="1" fill="#e4d089"></path><path id="SvgjsPath1053" d="M 0 0L 84 0L 100 16L 100 100L 0 100L 0 0Z" stroke="none" fill="none"></path><g id="SvgjsG1054"><text id="SvgjsText1055" font-family="微软雅黑" text-anchor="middle" font-size="13px" width="80px" fill="#323232" font-weight="400" align="middle" lineHeight="125%" anchor="middle" family="微软雅黑" size="13px" weight="400" font-style="" opacity="1" y="30.875" transform="rotate(0)"><tspan id="SvgjsTspan1056" dy="16" x="50"><tspan id="SvgjsTspan1057" style="text-decoration:;">字节，即二进</tspan></tspan><tspan id="SvgjsTspan1058" dy="16" x="50"><tspan id="SvgjsTspan1059" style="text-decoration:;">制的文本</tspan></tspan></text></g></g><g id="SvgjsG1060" transform="translate(452.04919973250526,150.90364407270403)"><path id="SvgjsPath1061" d="M 0 0L 84 0L 100 16L 100 100L 0 100L 0 0Z" stroke="none" fill-opacity="1" fill="#fff7bc"></path><path id="SvgjsPath1062" d="M 84 0L 84 16L 100 16Z" stroke="none" fill-opacity="1" fill="#e4d089"></path><path id="SvgjsPath1063" d="M 0 0L 84 0L 100 16L 100 100L 0 100L 0 0Z" stroke="none" fill="none"></path><g id="SvgjsG1064"><text id="SvgjsText1065" font-family="微软雅黑" text-anchor="middle" font-size="13px" width="80px" fill="#323232" font-weight="400" align="middle" lineHeight="125%" anchor="middle" family="微软雅黑" size="13px" weight="400" font-style="" opacity="1" y="39.375" transform="rotate(0)"><tspan id="SvgjsTspan1066" dy="16" x="50"><tspan id="SvgjsTspan1067" style="text-decoration:;">对象</tspan></tspan></text></g></g></svg>